<?xml version="1.0" encoding="utf-8"?>

<!DOCTYPE svg PUBLIC "-//W3C//DTD SVG 1.1//EN" "http://www.w3.org/Graphics/SVG/1.1/DTD/svg11.dtd">
<svg version="1.1"
	 id="svg2" xmlns:cc="http://creativecommons.org/ns#" xmlns:dc="http://purl.org/dc/elements/1.1/" xmlns:rdf="http://www.w3.org/1999/02/22-rdf-syntax-ns#" xmlns:svg="http://www.w3.org/2000/svg"
	 xmlns="http://www.w3.org/2000/svg" xmlns:xlink="http://www.w3.org/1999/xlink" x="0px" y="0px" viewBox="0 0 2608.363 1155.437"
	 enable-background="new 0 0 2608.363 1155.437" xml:space="preserve">
<g>
	
		<path id="Fahrwerk" fill="#1E1E1E" stroke="#1E1E1E" stroke-width="5.6544" stroke-linecap="round" stroke-linejoin="round" stroke-miterlimit="10" d="
		M1476.827,639.323H1167.79H268.446v226.964v38.248h76.074c79.291,33.597,166.488,52.183,258.029,52.183
		c91.516,0,178.7-18.586,257.986-52.183h923.538c79.291,33.597,166.488,52.183,258.029,52.183
		c91.515,0,178.699-18.586,257.986-52.183h42.72v-19.939V639.318h-865.981V639.323z"/>
	<g id="Vorderrad">
		
			<circle id="circle5" fill="#4F4F4F" stroke="#000000" stroke-width="7.978" stroke-linecap="round" stroke-linejoin="round" stroke-miterlimit="10" cx="2042.098" cy="930.97" r="205.901"/>
		
			<circle id="circle7" fill="#6D6D6D" stroke="#000000" stroke-width="5.3187" stroke-linecap="round" stroke-linejoin="round" stroke-miterlimit="10" cx="2042.098" cy="930.97" r="190.043"/>
		
			<circle id="circle9" fill="#CECECE" stroke="#000000" stroke-width="10.6374" stroke-linecap="round" stroke-linejoin="round" stroke-miterlimit="10" cx="2042.102" cy="930.97" r="124.07"/>
		
			<radialGradient id="circle16_1_" cx="2098.7522" cy="151.1352" r="179.5918" gradientTransform="matrix(1 0 0 -1 0 1138.7622)" gradientUnits="userSpaceOnUse">
			<stop  offset="0" style="stop-color:#000000"/>
			<stop  offset="1" style="stop-color:#E5E5E5"/>
		</radialGradient>
		
			<circle id="circle16" fill="url(#circle16_1_)" stroke="#000000" stroke-width="10.6374" stroke-linecap="round" stroke-linejoin="round" stroke-miterlimit="10" cx="2042.098" cy="930.97" r="56.319"/>
		
			<circle id="circle18" fill="none" stroke="#000000" stroke-width="5.3187" stroke-linecap="round" stroke-linejoin="round" stroke-miterlimit="10" cx="2042.098" cy="930.97" r="113.569"/>
		
			<circle id="circle20" fill="none" stroke="#000000" stroke-width="5.3187" stroke-linecap="round" stroke-linejoin="round" stroke-miterlimit="10" cx="2042.102" cy="930.97" r="105.761"/>
	</g>
	<g id="Hinterrad">
		
			<circle id="circle23" fill="#4F4F4F" stroke="#000000" stroke-width="7.978" stroke-linecap="round" stroke-linejoin="round" stroke-miterlimit="10" cx="602.06" cy="930.97" r="205.901"/>
		
			<circle id="circle25" fill="#6D6D6D" stroke="#000000" stroke-width="5.3187" stroke-linecap="round" stroke-linejoin="round" stroke-miterlimit="10" cx="602.06" cy="930.97" r="190.043"/>
		
			<circle id="circle27" fill="#CECECE" stroke="#000000" stroke-width="10.6374" stroke-linecap="round" stroke-linejoin="round" stroke-miterlimit="10" cx="602.064" cy="930.97" r="124.07"/>
		
			<radialGradient id="circle34_1_" cx="658.7165" cy="151.1352" r="179.5918" gradientTransform="matrix(1 0 0 -1 0 1138.7622)" gradientUnits="userSpaceOnUse">
			<stop  offset="0" style="stop-color:#000000"/>
			<stop  offset="1" style="stop-color:#E5E5E5"/>
		</radialGradient>
		
			<circle id="circle34" fill="url(#circle34_1_)" stroke="#000000" stroke-width="10.6374" stroke-linecap="round" stroke-linejoin="round" stroke-miterlimit="10" cx="602.06" cy="930.97" r="56.319"/>
		
			<circle id="circle36" fill="none" stroke="#000000" stroke-width="5.3187" stroke-linecap="round" stroke-linejoin="round" stroke-miterlimit="10" cx="602.06" cy="930.97" r="113.569"/>
		
			<circle id="circle38" fill="none" stroke="#000000" stroke-width="5.3187" stroke-linecap="round" stroke-linejoin="round" stroke-miterlimit="10" cx="602.064" cy="930.97" r="105.761"/>
	</g>
	<g id="Spitzschutz">
		
			<line id="line74" fill="none" stroke="#000000" stroke-width="13.9035" stroke-linecap="round" stroke-linejoin="round" stroke-miterlimit="10" x1="1787.077" y1="895.135" x2="1787.077" y2="1069.588"/>
		
			<line id="line109" fill="none" stroke="#000000" stroke-width="13.9035" stroke-linecap="round" stroke-linejoin="round" stroke-miterlimit="10" x1="351.736" y1="895.135" x2="351.736" y2="1069.588"/>
	</g>
	
		<linearGradient id="Aufbau_2_" gradientUnits="userSpaceOnUse" x1="1318.7615" y1="235.3091" x2="1318.7615" y2="1118.8673" gradientTransform="matrix(1 0 0 -1 0 1138.7622)">
		<stop  offset="0" style="stop-color:#BA0202"/>
		<stop  offset="0.551" style="stop-color:#BA0202"/>
		<stop  offset="0.5846" style="stop-color:#D38585"/>
		<stop  offset="0.5948" style="stop-color:#D38282"/>
		<stop  offset="0.6009" style="stop-color:#D37A7A"/>
		<stop  offset="0.606" style="stop-color:#D36C6C"/>
		<stop  offset="0.6105" style="stop-color:#D35757"/>
		<stop  offset="0.6146" style="stop-color:#D33D3D"/>
		<stop  offset="0.6183" style="stop-color:#D31D1D"/>
		<stop  offset="0.621" style="stop-color:#D30202"/>
		<stop  offset="0.8622" style="stop-color:#D30202"/>
		<stop  offset="0.9547" style="stop-color:#D38585"/>
		<stop  offset="0.9674" style="stop-color:#D38282"/>
		<stop  offset="0.975" style="stop-color:#D37A7A"/>
		<stop  offset="0.9813" style="stop-color:#D36C6C"/>
		<stop  offset="0.9869" style="stop-color:#D35757"/>
		<stop  offset="0.992" style="stop-color:#D33D3D"/>
		<stop  offset="0.9967" style="stop-color:#D31D1D"/>
		<stop  offset="1" style="stop-color:#D30202"/>
	</linearGradient>
	
		<linearGradient id="Aufbau_3_" gradientUnits="userSpaceOnUse" x1="51.2181" y1="677.0882" x2="2586.3049" y2="677.0882" gradientTransform="matrix(1 0 0 -1 0 1138.7622)">
		<stop  offset="0" style="stop-color:#000000"/>
		<stop  offset="1" style="stop-color:#E5E5E5"/>
	</linearGradient>
	<path id="Aufbau_1_" fill="url(#Aufbau_2_)" stroke="url(#Aufbau_3_)" stroke-width="4.255" stroke-miterlimit="10" d="
		M305.557,19.895h1891.791c41.26,0,76.912,24.058,93.668,58.914l174.304,290.367c35.363,0,58.778,51.791,46.813,60.216
		c40.243,70.134,59.361,133.389,66.424,315.807c7.191,0,6.25,19.347,0.821,19.347l-2.574,0.455l2.145,108.467
		c0,0,1.208-0.187,2.864-0.128c1.655,0.06,3.157,3.987,1.893,8.514c-3.638,13.029-15.879,21.59-30.538,21.59h-235.857
		c-5.876,0-13.411-3.88-16.828-8.659l-136.248-190.673c-3.434-4.77-10.944-8.65-16.828-8.65h-211.386
		c-5.868,0-13.454,3.846-16.922,8.587l-139.75,190.818c-3.464,4.736-11.037,8.586-16.905,8.586H844.707
		c-5.876,0-11.169-4.736-12.118-10.539c-5.868-35.801-19.764-68.892-39.916-97.264c-3.408-4.795-11.11-8.527-16.994-8.527H428.436
		c-5.876,0-13.595,3.74-16.994,8.527c-20.151,28.381-34.048,61.463-39.907,97.264c-0.957,5.8-6.242,10.539-12.127,10.539H84.232
		c-17.637,0-31.495-14.292-30.865-31.904c6.314-174.296,21.177-325.678,39.158-448.625c-6.365-17.918-1.545-43.681,8.369-53.834
		c1.153-6.982,2.31-13.854,3.481-20.611l57.816-237.214C184.376,58.768,249.72,19.895,305.557,19.895L305.557,19.895z
		 M2186.881,135.689c-0.83,0-402.966,0-402.966,0v229.219h574.925c0,0-85.116-147.013-108.135-185.014
		C2231.099,147.535,2212.934,135.689,2186.881,135.689z M2303.326,99.416l-35.984,17.309c-11.982,6.94-15.007,23.526-8.063,35.503
		l114.318,195.239c5.085,8.782,14.875,12.373,24.16,12.373h62.003C2459.76,359.84,2303.326,99.416,2303.326,99.416z"/>
	
		<path id="Maul" fill="#F7F7F7" stroke="#000000" stroke-width="10.6374" stroke-linecap="round" stroke-linejoin="round" stroke-miterlimit="10" d="
		M2579.383,764.542l-2.574,0.455l2.145,108.467c0,0,1.208-0.187,2.864-0.128c1.655,0.06,3.157,3.987,1.894,8.514
		c-3.638,13.029-15.88,21.59-30.538,21.59h-113.008c-0.315-3.6-0.655-7.182-0.655-10.846c0-68.794,56.119-131.755,139.052-147.404
		C2585.025,745.199,2585.242,764.542,2579.383,764.542z"/>
	
		<path id="Kontur_x5F_Aufbau" fill="none" stroke="#000000" stroke-width="10.6374" stroke-linecap="round" stroke-linejoin="round" stroke-miterlimit="10" d="
		M305.557,19.895h1891.791c41.26,0,76.912,24.058,93.668,58.914l174.304,290.367c35.363,0,58.778,51.791,46.813,60.216
		c40.226,70.109,59.348,133.55,66.424,315.807c6.544,0,6.68,19.347,0.821,19.347l-2.574,0.455l2.145,108.467
		c0,0,1.208-0.187,2.864-0.128c1.655,0.06,3.157,3.987,1.893,8.514c-3.638,13.029-15.879,21.59-30.538,21.59h-235.857
		c-5.876,0-13.411-3.88-16.828-8.659l-136.248-190.673c-3.434-4.77-10.944-8.65-16.828-8.65h-211.386
		c-5.868,0-13.454,3.846-16.922,8.587l-139.75,190.818c-3.464,4.736-11.037,8.586-16.905,8.586H844.707
		c-5.876,0-11.169-4.736-12.118-10.539c-5.868-35.801-19.764-68.892-39.916-97.264c-3.408-4.795-11.11-8.527-16.994-8.527H428.436
		c-5.876,0-13.595,3.74-16.994,8.527c-20.151,28.381-34.048,61.463-39.907,97.264c-0.957,5.8-6.242,10.539-12.127,10.539H84.232
		c-17.637,0-31.495-14.292-30.865-31.904c6.323-174.368,21.756-325.793,39.158-448.757c-6.365-17.786-1.876-43.711,8.369-53.753
		c1.149-6.965,2.319-13.82,3.481-20.56l57.816-237.214C184.376,58.768,249.72,19.895,305.557,19.895L305.557,19.895z"/>
	
		<path id="Sitz" fill="#562E2E" stroke="#000000" stroke-width="10.6374" stroke-linecap="round" stroke-linejoin="round" stroke-miterlimit="10" d="
		M1839.171,325.137l-32.146,7.718c-5.302,1.281-8.578,6.625-7.297,11.935l4.829,20.122h54.349l-7.804-32.47
		C1849.825,327.132,1844.489,323.856,1839.171,325.137z"/>
	
		<path id="Lenkrad" fill="#4C4C4C" stroke="#000000" stroke-width="5.3187" stroke-linecap="round" stroke-linejoin="round" stroke-miterlimit="10" d="
		M2272.852,316.112c-2.417-3.672-7.361-4.727-11.046-2.302l-78.117,51.102h29.138l57.706-37.754
		C2274.222,324.745,2275.261,319.801,2272.852,316.112z"/>
	<g id="Ausstellfenster">
		
			<linearGradient id="path188_1_" gradientUnits="userSpaceOnUse" x1="2156.3813" y1="888.4637" x2="2362.531" y2="888.4637" gradientTransform="matrix(1 0 0 -1 0 1138.7622)">
			<stop  offset="0" style="stop-color:#000000"/>
			<stop  offset="1" style="stop-color:#E5E5E5"/>
		</linearGradient>
		<path id="path188" fill="#BA0202" stroke="url(#path188_1_)" stroke-width="4.255" stroke-miterlimit="10" d="M2158.509,148.454
			v-12.765c17.063,0,27.542,0,28.372,0c26.053,0,44.222,11.842,63.824,44.205c23.019,38.005,108.135,185.014,108.135,185.014
			h-200.332v-12.765h129.933c26.649,0,37.414-18.684,24.023-41.72c-26.24-45.137-59.646-102.404-72.679-123.921
			c-19.194-31.687-34.474-38.052-52.906-38.052h-28.372V148.454z"/>
		<path id="path190" fill="none" stroke="#000000" stroke-width="4.255" stroke-miterlimit="10" d="M2158.509,352.147h129.934
			c26.649,0,37.414-18.684,24.023-41.72c-26.24-45.137-59.646-102.404-72.679-123.921c-19.194-31.687-34.473-38.052-52.906-38.052
			h-28.372"/>
		
			<path id="path192" fill="none" stroke="#000000" stroke-width="10.6374" stroke-linecap="round" stroke-linejoin="round" stroke-miterlimit="10" d="
			M2186.881,135.689c26.053,0,44.222,11.842,63.824,44.205c23.019,38.005,108.135,185.014,108.135,185.014h-200.332V135.689
			C2175.571,135.689,2186.051,135.689,2186.881,135.689z"/>
	</g>
	<g id="Schiebefenster">
		
			<path id="Scheiben" fill="none" stroke="#000000" stroke-width="10.6374" stroke-linecap="round" stroke-linejoin="round" stroke-miterlimit="10" d="
			M1783.916,135.689c0,0,282.789,0,374.593,0v229.219h-374.593V135.689z"/>
		
			<line id="line196" fill="none" stroke="#000000" stroke-width="5.3187" stroke-linecap="round" stroke-linejoin="round" stroke-miterlimit="10" x1="1951.454" y1="364.912" x2="1951.454" y2="135.689"/>
		
			<line id="line198" fill="none" stroke="#000000" stroke-width="5.3187" stroke-linecap="round" stroke-linejoin="round" stroke-miterlimit="10" x1="1969.189" y1="364.912" x2="1969.189" y2="135.689"/>
		
			<rect id="Griff" x="2105.522" y="335.706" fill="#FFFFFF" stroke="#000000" stroke-width="5.3187" stroke-linecap="round" stroke-linejoin="round" stroke-miterlimit="10" width="11.552" height="20.475"/>
	</g>
	
		<path id="Windschutzscheibe" fill="none" stroke="#000000" stroke-width="10.6374" stroke-linecap="round" stroke-linejoin="round" stroke-miterlimit="10" d="
		M2459.764,359.84L2303.326,99.416l-35.984,17.309c-11.982,6.94-15.007,23.526-8.063,35.503l114.318,195.239
		c5.085,8.782,14.875,12.373,24.16,12.373H2459.764z"/>
	
		<path id="Beifahrertür" fill="none" stroke="#000000" stroke-width="7.978" stroke-linecap="round" stroke-linejoin="round" stroke-miterlimit="10" d="
		M2169.146,653.892h-398.885V122.392h374.951h41.669c31.648,0,53.421,14.667,75.202,50.613
		c19.62,32.401,94.132,160.85,114.603,196.17c15.135,14.386,24.317,30.465,26.487,53.621c25.645,70.432,45.06,218.415,45.06,403.089
		h-155.74L2169.146,653.892L2169.146,653.892z"/>
	<g id="Sims">
		
			<path id="path204" fill="none" stroke="#000000" stroke-width="10.6374" stroke-linecap="round" stroke-linejoin="round" stroke-miterlimit="10" d="
			M2512.134,429.392c-8.608-3.059-70.662-6.599-108.965-6.599H92.478"/>
		
			<line id="line206" fill="none" stroke="#000000" stroke-width="5.3187" stroke-linecap="round" stroke-linejoin="round" stroke-miterlimit="10" x1="100.958" y1="369.171" x2="2465.321" y2="369.171"/>
	</g>
	<g id="Lüftungsgitter_x5F_oben">
		
			<line id="line209" fill="none" stroke="#000000" stroke-width="7.978" stroke-linecap="round" stroke-linejoin="round" stroke-miterlimit="10" x1="1742.936" y1="551.739" x2="1742.936" y2="640.603"/>
		
			<line id="line211" fill="none" stroke="#000000" stroke-width="7.978" stroke-linecap="round" stroke-linejoin="round" stroke-miterlimit="10" x1="1728.601" y1="551.739" x2="1728.601" y2="640.603"/>
		
			<line id="line213" fill="none" stroke="#000000" stroke-width="7.978" stroke-linecap="round" stroke-linejoin="round" stroke-miterlimit="10" x1="1714.275" y1="551.739" x2="1714.275" y2="640.603"/>
		
			<line id="line215" fill="none" stroke="#000000" stroke-width="7.978" stroke-linecap="round" stroke-linejoin="round" stroke-miterlimit="10" x1="1699.953" y1="551.739" x2="1699.953" y2="640.603"/>
		
			<line id="line217" fill="none" stroke="#000000" stroke-width="7.978" stroke-linecap="round" stroke-linejoin="round" stroke-miterlimit="10" x1="1685.609" y1="551.739" x2="1685.609" y2="640.603"/>
		
			<line id="line219" fill="none" stroke="#000000" stroke-width="7.978" stroke-linecap="round" stroke-linejoin="round" stroke-miterlimit="10" x1="1671.291" y1="551.739" x2="1671.291" y2="640.603"/>
		
			<line id="line221" fill="none" stroke="#000000" stroke-width="7.978" stroke-linecap="round" stroke-linejoin="round" stroke-miterlimit="10" x1="1656.965" y1="551.739" x2="1656.965" y2="640.603"/>
		
			<line id="line223" fill="none" stroke="#000000" stroke-width="7.978" stroke-linecap="round" stroke-linejoin="round" stroke-miterlimit="10" x1="1642.63" y1="551.739" x2="1642.63" y2="640.603"/>
	</g>
	<g id="Lüftungsgitter_x5F_unten_1_">
		
			<line id="line226" fill="none" stroke="#000000" stroke-width="7.978" stroke-linecap="round" stroke-linejoin="round" stroke-miterlimit="10" x1="1742.936" y1="688.118" x2="1742.936" y2="776.983"/>
		
			<line id="line228" fill="none" stroke="#000000" stroke-width="7.978" stroke-linecap="round" stroke-linejoin="round" stroke-miterlimit="10" x1="1728.601" y1="688.118" x2="1728.601" y2="776.983"/>
		
			<line id="line230" fill="none" stroke="#000000" stroke-width="7.978" stroke-linecap="round" stroke-linejoin="round" stroke-miterlimit="10" x1="1714.275" y1="688.118" x2="1714.275" y2="776.983"/>
		
			<line id="line232" fill="none" stroke="#000000" stroke-width="7.978" stroke-linecap="round" stroke-linejoin="round" stroke-miterlimit="10" x1="1699.953" y1="688.118" x2="1699.953" y2="776.983"/>
		
			<line id="line234" fill="none" stroke="#000000" stroke-width="7.978" stroke-linecap="round" stroke-linejoin="round" stroke-miterlimit="10" x1="1685.609" y1="688.118" x2="1685.609" y2="776.983"/>
		
			<line id="line236" fill="none" stroke="#000000" stroke-width="7.978" stroke-linecap="round" stroke-linejoin="round" stroke-miterlimit="10" x1="1671.291" y1="688.118" x2="1671.291" y2="776.983"/>
		
			<line id="line238" fill="none" stroke="#000000" stroke-width="7.978" stroke-linecap="round" stroke-linejoin="round" stroke-miterlimit="10" x1="1656.965" y1="688.118" x2="1656.965" y2="776.983"/>
		
			<line id="line240" fill="none" stroke="#000000" stroke-width="7.978" stroke-linecap="round" stroke-linejoin="round" stroke-miterlimit="10" x1="1642.63" y1="688.118" x2="1642.63" y2="776.983"/>
	</g>
	<g id="Türgriff_x5F_vorn">
		
			<ellipse id="ellipse243" fill="#FFFFFF" stroke="#000000" stroke-width="5.3187" stroke-linecap="round" stroke-linejoin="round" stroke-miterlimit="10" cx="1795.144" cy="471.984" rx="10.493" ry="22.487"/>
		
			<path id="path245" fill="#FFFFFF" stroke="#000000" stroke-width="5.3187" stroke-linecap="round" stroke-linejoin="round" stroke-miterlimit="10" d="
			M1799.612,467.295c24.772,0.323,89.031,3.225,89.031,4.919c0,1.693-64.258,4.595-89.031,4.919
			c-2.379,0.034-4.306-1.902-4.306-4.289v-1.264C1795.31,469.197,1797.238,467.261,1799.612,467.295L1799.612,467.295z"/>
	</g>
	<g id="Türgriff_x5F_Laderaum">
		
			<ellipse id="ellipse248" fill="#FFFFFF" stroke="#000000" stroke-width="5.3187" stroke-linecap="round" stroke-linejoin="round" stroke-miterlimit="10" cx="1017.288" cy="471.984" rx="10.493" ry="22.487"/>
		
			<path id="path250" fill="#FFFFFF" stroke="#000000" stroke-width="5.3187" stroke-linecap="round" stroke-linejoin="round" stroke-miterlimit="10" d="
			M1021.755,467.295c24.772,0.323,89.031,3.225,89.031,4.919c0,1.693-64.258,4.595-89.031,4.919
			c-2.378,0.034-4.306-1.902-4.306-4.289v-1.264C1017.449,469.197,1019.377,467.261,1021.755,467.295L1021.755,467.295z"/>
	</g>
	<g id="Scharnier_x5F_Beifahrertür">
		
			<path id="path253" fill="#D30202" stroke="#000000" stroke-width="5.3187" stroke-linecap="round" stroke-linejoin="round" stroke-miterlimit="10" d="
			M2421.635,427.762h-11.552c-1.744,0-3.157,1.413-3.157,3.157v45c0,1.736,1.413,3.157,3.157,3.157h11.552
			c1.745,0,3.157-1.421,3.157-3.157v-45C2424.792,429.175,2423.38,427.762,2421.635,427.762z"/>
		<g id="g255">
			
				<path id="path257" fill="#D30202" stroke="#000000" stroke-width="5.3187" stroke-linecap="round" stroke-linejoin="round" stroke-miterlimit="10" d="
				M2412.194,427.762h-2.11c-1.744,0-3.157,1.413-3.157,3.157v7.357h8.425v-7.357
				C2415.351,429.175,2413.93,427.762,2412.194,427.762z"/>
			
				<path id="path259" fill="#D30202" stroke="#000000" stroke-width="5.3187" stroke-linecap="round" stroke-linejoin="round" stroke-miterlimit="10" d="
				M2410.083,479.081h2.11c1.736,0,3.157-1.421,3.157-3.157v-7.357h-8.425v7.357C2406.926,477.66,2408.338,479.081,2410.083,479.081
				z"/>
		</g>
	</g>
	<g id="Kühlergrill">
		
			<path id="path262" fill="#282828" stroke="#000000" stroke-width="10.6374" stroke-linecap="round" stroke-linejoin="round" stroke-miterlimit="10" d="
			M2576.809,765.001c-36.282,6.94-61.08,33.274-61.08,70.156c0,37.631,25.781,38.669,63.224,38.312L2576.809,765.001z"/>
		<g id="g264">
			
				<line id="line266" fill="none" stroke="#D3D3D3" stroke-width="4.255" stroke-linecap="round" stroke-linejoin="round" stroke-miterlimit="10" x1="2576.809" y1="765.001" x2="2578.949" y2="873.468"/>
			
				<line id="line268" fill="none" stroke="#D3D3D3" stroke-width="4.255" stroke-linecap="round" stroke-linejoin="round" stroke-miterlimit="10" x1="2570.227" y1="873.234" x2="2568.423" y2="767.069"/>
			
				<line id="line270" fill="none" stroke="#D3D3D3" stroke-width="4.255" stroke-linecap="round" stroke-linejoin="round" stroke-miterlimit="10" x1="2561.615" y1="873.234" x2="2559.862" y2="769.988"/>
			
				<line id="line272" fill="none" stroke="#D3D3D3" stroke-width="4.255" stroke-linecap="round" stroke-linejoin="round" stroke-miterlimit="10" x1="2551.335" y1="774.115" x2="2552.999" y2="872.869"/>
			
				<line id="line274" fill="none" stroke="#D3D3D3" stroke-width="4.255" stroke-linecap="round" stroke-linejoin="round" stroke-miterlimit="10" x1="2542.816" y1="779.553" x2="2544.378" y2="871.766"/>
			
				<line id="line276" fill="none" stroke="#D3D3D3" stroke-width="4.255" stroke-linecap="round" stroke-linejoin="round" stroke-miterlimit="10" x1="2534.341" y1="787.106" x2="2535.736" y2="869.464"/>
			
				<line id="line278" fill="none" stroke="#D3D3D3" stroke-width="4.255" stroke-linecap="round" stroke-linejoin="round" stroke-miterlimit="10" x1="2525.907" y1="797.883" x2="2527.043" y2="864.81"/>
			
				<line id="line280" fill="none" stroke="#D3D3D3" stroke-width="12.7649" stroke-linecap="round" stroke-miterlimit="10" x1="2520.125" y1="821.532" x2="2581.264" y2="821.532"/>
		</g>
		
			<path id="path282" fill="none" stroke="#000000" stroke-width="10.6374" stroke-linecap="round" stroke-linejoin="round" stroke-miterlimit="10" d="
			M2579.383,764.542c-37.686,6.165-63.658,32.87-63.658,70.615c0,38.346,27.049,38.286,63.454,38.286"/>
	</g>
	<g id="Stoßfänger_x5F_vorn">
		
			<path id="path285" fill="#F7F7F7" stroke="#000000" stroke-width="10.6374" stroke-linecap="round" stroke-linejoin="round" stroke-miterlimit="10" d="
			M2454.126,910.725c2.051-9.906,3.276-22.113,3.276-35.367c0-15.722-1.719-29.985-4.506-40.656c38.809,0,73.138,0,76.955,0
			c11.484,0,20.82,17.02,20.82,38.014c0,21.003-9.331,38.014-20.82,38.014C2526.082,910.725,2492.421,910.725,2454.126,910.725
			L2454.126,910.725z"/>
		<g id="g287">
			
				<linearGradient id="path322_1_" gradientUnits="userSpaceOnUse" x1="2377.7732" y1="228.0332" x2="2377.7732" y2="304.0607" gradientTransform="matrix(1 0 0 -1 0 1138.7622)">
				<stop  offset="0" style="stop-color:#BA0202"/>
				<stop  offset="0.3507" style="stop-color:#BA0404"/>
				<stop  offset="0.4937" style="stop-color:#BC0B0B"/>
				<stop  offset="0.5989" style="stop-color:#BE1717"/>
				<stop  offset="0.6855" style="stop-color:#C12929"/>
				<stop  offset="0.7607" style="stop-color:#C64040"/>
				<stop  offset="0.828" style="stop-color:#CB5C5C"/>
				<stop  offset="0.888" style="stop-color:#D17C7C"/>
				<stop  offset="0.9019" style="stop-color:#D38585"/>
				<stop  offset="0.9294" style="stop-color:#D38282"/>
				<stop  offset="0.946" style="stop-color:#D37A7A"/>
				<stop  offset="0.9596" style="stop-color:#D36C6C"/>
				<stop  offset="0.9717" style="stop-color:#D35757"/>
				<stop  offset="0.9827" style="stop-color:#D33D3D"/>
				<stop  offset="0.9929" style="stop-color:#D31D1D"/>
				<stop  offset="1" style="stop-color:#D30202"/>
			</linearGradient>
			<path id="path322" fill="url(#path322_1_)" stroke="#000000" stroke-width="10.6374" stroke-miterlimit="10" d="
				M2454.126,910.725c2.051-9.906,3.276-22.113,3.276-35.367c0-15.722-1.719-29.985-4.506-40.656c-50.128,0-107.744,0-116.747,0
				c-20.977,0-38.005,17.02-38.005,38.014c0,21.003,17.028,38.014,38.005,38.014
				C2345.229,910.725,2403.701,910.725,2454.126,910.725L2454.126,910.725z"/>
		</g>
	</g>
	<path id="Rückwand" fill="none" stroke="#000000" stroke-width="4.255" stroke-miterlimit="10" d="M220.212,117.699
		C154.8,344.99,121.097,570.669,110.778,873.498"/>
	<path id="Stoßfänger_x5F_hinten" stroke="#000000" stroke-width="10.6374" stroke-miterlimit="10" d="M124.224,910.725
		c20.985,0,38.014-17.011,38.014-38.014c0-20.994-17.028-38.014-38.014-38.014c-8.991,0-75.411,0-79.214,0
		c-11.493,0-20.828,17.02-20.828,38.014c0,21.003,9.331,38.014,20.828,38.014C48.775,910.725,115.157,910.725,124.224,910.725z"/>
	<g id="Scheinwerfer_1_">
		
			<path id="path360" fill="#DDDDDD" stroke="#000000" stroke-width="5.3187" stroke-linecap="round" stroke-linejoin="round" stroke-miterlimit="10" d="
			M2509.177,557.887c8.378,0,15.152,4.063,15.152,15.65c0,8.957,0,102.553,0,111.501c0,11.595-6.774,15.65-15.152,15.65V557.887
			L2509.177,557.887z"/>
		
			<radialGradient id="path375_1_" cx="2533.863" cy="531.8722" r="39.834" gradientTransform="matrix(1 0 0 -1 0 1138.7622)" gradientUnits="userSpaceOnUse">
			<stop  offset="0" style="stop-color:#FFFFFF"/>
			<stop  offset="0.1347" style="stop-color:#E5E5E5"/>
			<stop  offset="0.2829" style="stop-color:#D1D1D1"/>
			<stop  offset="0.4517" style="stop-color:#C3C3C3"/>
			<stop  offset="0.6569" style="stop-color:#BBBBBB"/>
			<stop  offset="1" style="stop-color:#B8B8B8"/>
		</radialGradient>
		
			<path id="path375" fill="url(#path375_1_)" stroke="#000000" stroke-width="5.3187" stroke-linecap="round" stroke-linejoin="round" stroke-miterlimit="10" d="
			M2548.22,629.289c0,22.13-9.301,41.911-23.892,55.051V574.235C2538.919,587.365,2548.22,607.151,2548.22,629.289z"/>
		<g id="g377">
			
				<line id="line379" fill="none" stroke="#EFEFEF" stroke-width="5.3187" stroke-linecap="round" stroke-linejoin="round" stroke-miterlimit="10" x1="2516.346" y1="573.545" x2="2516.346" y2="638.191"/>
			
				<line id="line381" fill="none" stroke="#FFFFFF" stroke-width="3.7907" stroke-linecap="round" stroke-linejoin="round" stroke-miterlimit="10" x1="2516.346" y1="573.545" x2="2516.346" y2="619.618"/>
		</g>
	</g>
	<g id="Blinkleuchte_x5F_vorn">
		
			<path id="path384" fill="#DDDDDD" stroke="#000000" stroke-width="5.3187" stroke-linecap="round" stroke-linejoin="round" stroke-miterlimit="10" d="
			M2509.177,707.053c3.059,0,5.544,1.489,5.544,5.736c0,3.268,0,37.495,0,40.762c0,4.238-2.485,5.727-5.544,5.727V707.053
			L2509.177,707.053z"/>
		
			<radialGradient id="path405_1_" cx="2532.4543" cy="411.56" r="17.0215" gradientTransform="matrix(1 0 0 -1 0 1138.7622)" gradientUnits="userSpaceOnUse">
			<stop  offset="0" style="stop-color:#DDD5C5"/>
			<stop  offset="0.0512" style="stop-color:#DDCEAF"/>
			<stop  offset="0.1687" style="stop-color:#DDBE82"/>
			<stop  offset="0.291" style="stop-color:#DDB15B"/>
			<stop  offset="0.4164" style="stop-color:#DDA73B"/>
			<stop  offset="0.546" style="stop-color:#DD9E22"/>
			<stop  offset="0.6817" style="stop-color:#DD9911"/>
			<stop  offset="0.8272" style="stop-color:#DD9506"/>
			<stop  offset="1" style="stop-color:#DD9403"/>
		</radialGradient>
		
			<path id="path405" fill="url(#path405_1_)" stroke="#000000" stroke-width="5.3187" stroke-linecap="round" stroke-linejoin="round" stroke-miterlimit="10" d="
			M2543.727,733.161c0,5.821-8.663,12.833-13.837,12.833c-4.127,6.119-12.25,7.297-15.169,7.297v-40.273
			c2.83,0,10.659,1.017,15.148,7.331C2535.064,720.35,2543.727,727.362,2543.727,733.161L2543.727,733.161z"/>
	</g>
	<g id="Blinkleuchte_x5F_hinten">
		
			<path id="path408" fill="#DDDDDD" stroke="#000000" stroke-width="5.3187" stroke-linecap="round" stroke-linejoin="round" stroke-miterlimit="10" d="
			M119.067,592.237c-3.047-0.277-5.659,0.974-6.042,5.208c-0.294,3.251-3.395,37.341-3.698,40.592
			c-0.383,4.225,1.953,5.931,5.004,6.208L119.067,592.237z"/>
		
			<radialGradient id="path429_1_" cx="85.4198" cy="524.9377" r="17.0215" gradientTransform="matrix(-0.9959 -0.0907 0.0907 -0.9959 131.4663 1140.738)" gradientUnits="userSpaceOnUse">
			<stop  offset="0" style="stop-color:#DDD5C5"/>
			<stop  offset="0.0512" style="stop-color:#DDCEAF"/>
			<stop  offset="0.1687" style="stop-color:#DDBE82"/>
			<stop  offset="0.291" style="stop-color:#DDB15B"/>
			<stop  offset="0.4164" style="stop-color:#DDA73B"/>
			<stop  offset="0.546" style="stop-color:#DD9E22"/>
			<stop  offset="0.6817" style="stop-color:#DD9911"/>
			<stop  offset="0.8272" style="stop-color:#DD9506"/>
			<stop  offset="1" style="stop-color:#DD9403"/>
		</radialGradient>
		
			<path id="path429" fill="url(#path429_1_)" stroke="#000000" stroke-width="5.3187" stroke-linecap="round" stroke-linejoin="round" stroke-miterlimit="10" d="
			M82.287,615.108c-0.528,5.795,7.463,13.565,12.616,14.033c3.553,6.472,11.539,8.378,14.446,8.642l3.651-40.107
			c-2.821-0.26-10.71,0.042-15.752,5.931C92.078,603.134,82.815,609.329,82.287,615.108L82.287,615.108z"/>
	</g>
	<g id="Wölbung_x5F_Leuchtenhaus">
		
			<path id="path432" fill="none" stroke="#000000" stroke-width="5.3187" stroke-linecap="round" stroke-linejoin="round" stroke-miterlimit="10" d="
			M2471.767,528.498c3.191,10.637,17.764,29.389,37.41,29.389"/>
		
			<path id="path434" fill="none" stroke="#000000" stroke-width="5.3187" stroke-linecap="round" stroke-linejoin="round" stroke-miterlimit="10" d="
			M2485.357,778.315c2.034-6.774,11.31-18.709,23.819-18.709"/>
	</g>
	
		<path id="Dachrinne" fill="none" stroke="#000000" stroke-width="15.9561" stroke-linecap="round" stroke-linejoin="round" stroke-miterlimit="10" d="
		M2311.023,81.175c-28.606,7.965-75.483,36.525-75.483,36.525H220.212l-51.825-33.882"/>
	
		<path id="Heckscheibe_1_" fill="#C6C6C6" stroke="#000000" stroke-width="10.6374" stroke-linecap="round" stroke-linejoin="round" stroke-miterlimit="10" d="
		M104.413,348.373h20.56c9.042-2.093,17.769-7.795,20.751-17.501l42.656-182.355c4.072-13.237-2.608-28.721-15.858-32.784
		l-10.157-4.527L104.413,348.373z"/>
	<g id="Laderaumtür">
		
			<rect id="Tür" x="990.307" y="135.689" fill="none" stroke="#000000" stroke-width="7.978" stroke-linecap="round" stroke-linejoin="round" stroke-miterlimit="10" width="563.415" height="767.755"/>
		
			<circle id="Gummipuffer" fill="#5B5B5B" stroke="#000000" stroke-width="5.3187" stroke-linecap="round" stroke-linejoin="round" stroke-miterlimit="10" cx="1279.223" cy="470.818" r="12.127"/>
	</g>
	<g id="Scharnier_x5F_Laderaumtür_x5F_oben">
		
			<path id="path442" fill="#D30202" stroke="#000000" stroke-width="5.3187" stroke-linecap="round" stroke-linejoin="round" stroke-miterlimit="10" d="
			M1561.335,311.368h-11.552c-1.745,0-3.157,1.413-3.157,3.157v45c0,1.736,1.413,3.157,3.157,3.157h11.552
			c1.745,0,3.157-1.421,3.157-3.157v-45C1564.492,312.78,1563.079,311.368,1561.335,311.368z"/>
		<g id="g444">
			
				<path id="path446" fill="#D30202" stroke="#000000" stroke-width="5.3187" stroke-linecap="round" stroke-linejoin="round" stroke-miterlimit="10" d="
				M1551.897,311.368h-2.11c-1.745,0-3.157,1.413-3.157,3.157v7.357h8.425v-7.357
				C1555.054,312.78,1553.633,311.368,1551.897,311.368z"/>
			
				<path id="path448" fill="#D30202" stroke="#000000" stroke-width="5.3187" stroke-linecap="round" stroke-linejoin="round" stroke-miterlimit="10" d="
				M1549.782,362.682h2.11c1.736,0,3.157-1.421,3.157-3.157v-7.361h-8.425v7.361
				C1546.625,361.261,1548.038,362.682,1549.782,362.682z"/>
		</g>
	</g>
	<g id="Scharnier_x5F_Laderaumtür_x5F_unten">
		
			<path id="path451" fill="#D30202" stroke="#000000" stroke-width="5.3187" stroke-linecap="round" stroke-linejoin="round" stroke-miterlimit="10" d="
			M1561.335,723.566h-11.552c-1.745,0-3.157,1.413-3.157,3.157v45c0,1.736,1.413,3.157,3.157,3.157h11.552
			c1.745,0,3.157-1.421,3.157-3.157v-45C1564.492,724.979,1563.079,723.566,1561.335,723.566z"/>
		<g id="g453">
			
				<path id="path455" fill="#D30202" stroke="#000000" stroke-width="5.3187" stroke-linecap="round" stroke-linejoin="round" stroke-miterlimit="10" d="
				M1551.897,723.566h-2.11c-1.745,0-3.157,1.413-3.157,3.157v7.357h8.425v-7.357
				C1555.054,724.979,1553.633,723.566,1551.897,723.566z"/>
			
				<path id="path457" fill="#D30202" stroke="#000000" stroke-width="5.3187" stroke-linecap="round" stroke-linejoin="round" stroke-miterlimit="10" d="
				M1549.782,774.881h2.11c1.736,0,3.157-1.421,3.157-3.157v-7.361h-8.425v7.361C1546.625,773.46,1548.038,774.881,1549.782,774.881
				z"/>
		</g>
	</g>
	<g id="Tankdeckel">
		
			<circle id="Rand" fill="#C4C4C4" stroke="#000000" stroke-width="4.255" stroke-linecap="round" stroke-linejoin="round" stroke-miterlimit="10" cx="1721.525" cy="477.8" r="20.015"/>
		
			<circle id="Deckel" fill="#C4C4C4" stroke="#000000" stroke-width="5.3187" stroke-linecap="round" stroke-linejoin="round" stroke-miterlimit="10" cx="1721.525" cy="471.426" r="20.015"/>
		
			<path id="Einzug" fill="none" stroke="#000000" stroke-width="5.3187" stroke-linecap="round" stroke-linejoin="round" stroke-miterlimit="10" d="
			M1684.613,471.426c0-20.377,16.531-36.916,36.916-36.916c20.377,0,36.907,16.539,36.907,36.916"/>
	</g>
	<g id="Rückspiegel">
		
			<path id="path464" fill="#D30202" stroke="#000000" stroke-width="5.3187" stroke-linecap="round" stroke-linejoin="round" stroke-miterlimit="10" d="
			M2356.411,434.327l-9.688,0.004c-1.464,0-2.647,1.183-2.642,2.651l0.021,37.737c0,1.459,1.183,2.651,2.647,2.647l9.693-0.004
			c1.459,0,2.642-1.191,2.642-2.651l-0.021-37.737C2359.058,435.51,2357.871,434.327,2356.411,434.327L2356.411,434.327z"/>
		
			<rect id="rect466" x="2344.089" y="443.012" fill="#D30202" stroke="#000000" stroke-width="5.3187" stroke-linecap="round" stroke-linejoin="round" stroke-miterlimit="10" width="14.982" height="25.674"/>
		
			<radialGradient id="path473_1_" cx="2342.4951" cy="984.2144" r="54.2136" gradientTransform="matrix(0.9923 0.1241 0.1241 -0.9923 -143.0525 1044.9435)" gradientUnits="userSpaceOnUse">
			<stop  offset="0" style="stop-color:#000000"/>
			<stop  offset="1" style="stop-color:#DDDDDD"/>
		</radialGradient>
		
			<path id="path473" fill="url(#path473_1_)" stroke="#000000" stroke-width="6.1914" stroke-linecap="round" stroke-linejoin="round" stroke-miterlimit="10" d="
			M2316.121,341.931c-7.17,20.419-19.875,34.546-28.38,31.559c-8.501-2.987-9.591-21.96-2.417-42.371
			c7.165-20.415,19.866-34.542,28.368-31.559C2322.197,302.547,2323.282,321.52,2316.121,341.931z"/>
		
			<path id="path475" fill="none" stroke="#6D6D6D" stroke-width="6.3824" stroke-linecap="round" stroke-linejoin="round" stroke-miterlimit="10" d="
			M2303.343,337.204c0,0,1.408,0.643,3.14,1.43c1.736,0.791,3.766,3.234,4.531,5.455l38.737,75.764
			c0.77,2.221,1.43,5.927,1.472,8.276l0.204,10.297"/>
	</g>
	<g id="Scheibenwischer">
		
			<polyline id="polyline478" fill="none" stroke="#000000" stroke-width="4.255" stroke-linecap="round" stroke-linejoin="round" stroke-miterlimit="10" points="
			2490.885,378.847 2503.492,369.529 2371.512,255.041 		"/>
		
			<path id="path480" fill="none" stroke="#000000" stroke-width="10.6374" stroke-linecap="round" stroke-linejoin="round" stroke-miterlimit="10" d="
			M2308.539,212.474c36.724,25.04,87.737,79.776,109.493,114.833"/>
		
			<polyline id="polyline482" fill="none" stroke="#000000" stroke-width="10.6374" stroke-linecap="round" stroke-linejoin="round" stroke-miterlimit="10" points="
			2490.885,378.847 2503.492,369.529 2469.674,340.37 		"/>
	</g>
</g>
</svg>
